<svg width="885" height="214" viewBox="0 0 885 214" fill="none" xmlns="http://www.w3.org/2000/svg">
<path d="M200.328 94.8532L106.089 2.25275C103.464 -0.327089 99.2963 -0.327089 96.6714 2.25275L2.4326 94.8532C-1.93173 99.1416 1.07395 106.663 7.14125 106.663H30.7856V199.608C30.7856 203.403 33.8167 206.48 37.5559 206.48H72.532V135.753C72.532 131.958 75.563 128.88 79.3022 128.88H123.458C127.197 128.88 130.228 131.957 130.228 135.753V206.48H165.204C168.943 206.48 171.975 203.403 171.975 199.608V106.663H195.619C201.692 106.663 204.688 99.1375 200.328 94.8532Z" fill="white"/>
<rect x="61.0815" y="120.625" width="82.3104" height="85.8711" fill="white"/>
<path d="M101.38 97.2324C79.9068 97.2324 62.437 115.066 62.437 136.985C62.437 164.189 97.2874 204.124 98.7712 205.811C100.165 207.396 102.598 207.393 103.989 205.811C105.473 204.124 140.323 164.189 140.323 136.985C140.323 115.066 122.853 97.2324 101.38 97.2324ZM101.38 156.986C90.5764 156.986 81.7871 148.014 81.7871 136.985C81.7871 125.957 90.5766 116.985 101.38 116.985C112.184 116.985 120.973 125.957 120.973 136.986C120.973 148.014 112.184 156.986 101.38 156.986Z" fill="#117700"/>
<ellipse cx="102.279" cy="137.406" rx="21.1492" ry="21.4678" fill="white"/>
<path d="M293.068 184.431C286.177 184.431 280.012 182.89 274.572 179.807C269.132 176.725 264.871 172.463 261.788 167.023C258.705 161.493 257.164 155.282 257.164 148.391C257.164 141.41 258.705 135.199 261.788 129.759C264.871 124.229 269.132 119.967 274.572 116.975C280.012 113.893 286.177 112.351 293.068 112.351C298.78 112.351 303.948 113.485 308.572 115.751C313.287 117.927 317.095 121.146 319.996 125.407L314.964 129.079C312.425 125.543 309.252 122.914 305.444 121.191C301.727 119.378 297.601 118.471 293.068 118.471C287.537 118.471 282.551 119.741 278.108 122.279C273.756 124.727 270.311 128.218 267.772 132.751C265.324 137.285 264.1 142.498 264.1 148.391C264.1 154.285 265.324 159.498 267.772 164.031C270.311 168.565 273.756 172.101 278.108 174.639C282.551 177.087 287.537 178.311 293.068 178.311C297.601 178.311 301.727 177.45 305.444 175.727C309.252 173.914 312.425 171.239 314.964 167.703L319.996 171.375C317.095 175.637 313.287 178.901 308.572 181.167C303.948 183.343 298.78 184.431 293.068 184.431ZM366.902 184.431C360.193 184.431 354.118 182.89 348.678 179.807C343.329 176.725 339.113 172.463 336.03 167.023C332.948 161.493 331.406 155.282 331.406 148.391C331.406 141.501 332.948 135.335 336.03 129.895C339.113 124.365 343.329 120.058 348.678 116.975C354.118 113.893 360.193 112.351 366.902 112.351C373.612 112.351 379.641 113.893 384.99 116.975C390.43 120.058 394.692 124.365 397.774 129.895C400.857 135.335 402.398 141.501 402.398 148.391C402.398 155.282 400.857 161.493 397.774 167.023C394.692 172.463 390.43 176.725 384.99 179.807C379.641 182.89 373.612 184.431 366.902 184.431ZM366.902 178.311C372.342 178.311 377.193 177.042 381.454 174.503C385.806 171.965 389.206 168.429 391.654 163.895C394.193 159.362 395.462 154.194 395.462 148.391C395.462 142.589 394.193 137.421 391.654 132.887C389.206 128.354 385.806 124.818 381.454 122.279C377.193 119.741 372.342 118.471 366.902 118.471C361.462 118.471 356.566 119.741 352.214 122.279C347.953 124.818 344.553 128.354 342.014 132.887C339.566 137.421 338.342 142.589 338.342 148.391C338.342 154.194 339.566 159.362 342.014 163.895C344.553 168.429 347.953 171.965 352.214 174.503C356.566 177.042 361.462 178.311 366.902 178.311ZM430.022 128.399C432.198 123.231 435.598 119.287 440.222 116.567C444.846 113.757 450.467 112.351 457.086 112.351V119.015L455.454 118.879C447.566 118.879 441.401 121.373 436.958 126.359C432.515 131.255 430.294 138.101 430.294 146.895V183.887H423.494V112.895H430.022V128.399ZM499.758 112.351C508.553 112.351 515.308 114.618 520.022 119.151C524.737 123.594 527.094 130.167 527.094 138.871V183.887H520.566V171.239C518.3 175.41 514.99 178.674 510.638 181.031C506.286 183.298 501.073 184.431 494.998 184.431C487.11 184.431 480.854 182.573 476.23 178.855C471.697 175.138 469.43 170.242 469.43 164.167C469.43 158.274 471.516 153.514 475.686 149.887C479.948 146.17 486.702 144.311 495.95 144.311H520.294V138.599C520.294 131.981 518.481 126.949 514.854 123.503C511.318 120.058 506.105 118.335 499.214 118.335C494.5 118.335 489.966 119.151 485.614 120.783C481.353 122.415 477.726 124.591 474.734 127.311L471.334 122.415C474.87 119.242 479.132 116.794 484.118 115.071C489.105 113.258 494.318 112.351 499.758 112.351ZM495.95 178.855C501.844 178.855 506.83 177.495 510.91 174.775C515.081 172.055 518.209 168.111 520.294 162.943V149.615H496.086C489.105 149.615 484.028 150.885 480.854 153.423C477.772 155.962 476.23 159.453 476.23 163.895C476.23 168.519 477.953 172.191 481.398 174.911C484.844 177.541 489.694 178.855 495.95 178.855ZM655.239 112.895L628.311 183.887H621.919L597.983 122.279L573.911 183.887H567.655L540.727 112.895H547.255L570.919 176.271L595.127 112.895H600.975L625.047 176.135L648.983 112.895H655.239ZM692.868 112.351C701.662 112.351 708.417 114.618 713.132 119.151C717.846 123.594 720.204 130.167 720.204 138.871V183.887H713.676V171.239C711.409 175.41 708.1 178.674 703.748 181.031C699.396 183.298 694.182 184.431 688.108 184.431C680.22 184.431 673.964 182.573 669.34 178.855C664.806 175.138 662.54 170.242 662.54 164.167C662.54 158.274 664.625 153.514 668.796 149.887C673.057 146.17 679.812 144.311 689.06 144.311H713.404V138.599C713.404 131.981 711.59 126.949 707.964 123.503C704.428 120.058 699.214 118.335 692.324 118.335C687.609 118.335 683.076 119.151 678.724 120.783C674.462 122.415 670.836 124.591 667.844 127.311L664.444 122.415C667.98 119.242 672.241 116.794 677.228 115.071C682.214 113.258 687.428 112.351 692.868 112.351ZM689.06 178.855C694.953 178.855 699.94 177.495 704.02 174.775C708.19 172.055 711.318 168.111 713.404 162.943V149.615H689.196C682.214 149.615 677.137 150.885 673.964 153.423C670.881 155.962 669.34 159.453 669.34 163.895C669.34 168.519 671.062 172.191 674.508 174.911C677.953 177.541 682.804 178.855 689.06 178.855ZM803.877 112.895L767.429 193.543C764.709 199.799 761.535 204.242 757.909 206.871C754.373 209.501 750.157 210.815 745.261 210.815C741.997 210.815 738.914 210.271 736.013 209.183C733.202 208.095 730.799 206.509 728.805 204.423L732.205 199.255C735.831 202.973 740.229 204.831 745.397 204.831C748.842 204.831 751.789 203.879 754.237 201.975C756.685 200.071 758.951 196.807 761.037 192.183L764.845 183.615L732.885 112.895H740.093L768.517 176.407L796.941 112.895H803.877Z" fill="white"/>
</svg>
