<svg width="145" height="27" viewBox="0 0 145 27" fill="none" xmlns="http://www.w3.org/2000/svg">
<path d="M9.65411 19.7234C7.83011 19.7234 6.19811 19.3154 4.75811 18.4994C3.31811 17.6834 2.19011 16.5554 1.37411 15.1154C0.558109 13.6514 0.150108 12.0074 0.150108 10.1834C0.150108 8.33541 0.558109 6.69141 1.37411 5.25141C2.19011 3.78741 3.31811 2.65941 4.75811 1.86741C6.19811 1.05141 7.83011 0.643406 9.65411 0.643406C11.1661 0.643406 12.5341 0.943406 13.7581 1.54341C15.0061 2.11941 16.0141 2.97141 16.7821 4.09941L15.4501 5.07141C14.7781 4.13541 13.9381 3.43941 12.9301 2.98341C11.9461 2.50341 10.8541 2.26341 9.65411 2.26341C8.19011 2.26341 6.87011 2.59941 5.69411 3.27141C4.54211 3.91941 3.63011 4.84341 2.95811 6.04341C2.31011 7.24341 1.98611 8.62341 1.98611 10.1834C1.98611 11.7434 2.31011 13.1234 2.95811 14.3234C3.63011 15.5234 4.54211 16.4594 5.69411 17.1314C6.87011 17.7794 8.19011 18.1034 9.65411 18.1034C10.8541 18.1034 11.9461 17.8754 12.9301 17.4194C13.9381 16.9394 14.7781 16.2314 15.4501 15.2954L16.7821 16.2674C16.0141 17.3954 15.0061 18.2594 13.7581 18.8594C12.5341 19.4354 11.1661 19.7234 9.65411 19.7234ZM29.1985 19.7234C27.4225 19.7234 25.8145 19.3154 24.3745 18.4994C22.9585 17.6834 21.8425 16.5554 21.0265 15.1154C20.2105 13.6514 19.8025 12.0074 19.8025 10.1834C19.8025 8.35941 20.2105 6.72741 21.0265 5.28741C21.8425 3.82341 22.9585 2.68341 24.3745 1.86741C25.8145 1.05141 27.4225 0.643406 29.1985 0.643406C30.9745 0.643406 32.5705 1.05141 33.9865 1.86741C35.4265 2.68341 36.5545 3.82341 37.3705 5.28741C38.1865 6.72741 38.5945 8.35941 38.5945 10.1834C38.5945 12.0074 38.1865 13.6514 37.3705 15.1154C36.5545 16.5554 35.4265 17.6834 33.9865 18.4994C32.5705 19.3154 30.9745 19.7234 29.1985 19.7234ZM29.1985 18.1034C30.6385 18.1034 31.9225 17.7674 33.0505 17.0954C34.2025 16.4234 35.1025 15.4874 35.7505 14.2874C36.4225 13.0874 36.7585 11.7194 36.7585 10.1834C36.7585 8.64741 36.4225 7.27941 35.7505 6.07941C35.1025 4.87941 34.2025 3.94341 33.0505 3.27141C31.9225 2.59941 30.6385 2.26341 29.1985 2.26341C27.7585 2.26341 26.4625 2.59941 25.3105 3.27141C24.1825 3.94341 23.2825 4.87941 22.6105 6.07941C21.9625 7.27941 21.6385 8.64741 21.6385 10.1834C21.6385 11.7194 21.9625 13.0874 22.6105 14.2874C23.2825 15.4874 24.1825 16.4234 25.3105 17.0954C26.4625 17.7674 27.7585 18.1034 29.1985 18.1034ZM45.9067 4.89141C46.4827 3.52341 47.3827 2.47941 48.6067 1.75941C49.8307 1.01541 51.3187 0.643406 53.0707 0.643406V2.40741L52.6387 2.37141C50.5507 2.37141 48.9187 3.03141 47.7427 4.35141C46.5667 5.64741 45.9787 7.45941 45.9787 9.78741V19.5794H44.1787V0.787406H45.9067V4.89141ZM64.3662 0.643406C66.6942 0.643406 68.4822 1.24341 69.7302 2.44341C70.9782 3.61941 71.6022 5.35941 71.6022 7.66341V19.5794H69.8742V16.2314C69.2742 17.3354 68.3982 18.1994 67.2462 18.8234C66.0942 19.4234 64.7142 19.7234 63.1062 19.7234C61.0182 19.7234 59.3622 19.2314 58.1382 18.2474C56.9382 17.2634 56.3382 15.9674 56.3382 14.3594C56.3382 12.7994 56.8902 11.5394 57.9942 10.5794C59.1222 9.59541 60.9102 9.10341 63.3582 9.10341H69.8022V7.59141C69.8022 5.83941 69.3222 4.50741 68.3622 3.59541C67.4262 2.68341 66.0462 2.22741 64.2222 2.22741C62.9742 2.22741 61.7742 2.44341 60.6222 2.87541C59.4942 3.30741 58.5342 3.88341 57.7422 4.60341L56.8422 3.30741C57.7782 2.46741 58.9062 1.81941 60.2262 1.36341C61.5462 0.883406 62.9262 0.643406 64.3662 0.643406ZM63.3582 18.2474C64.9182 18.2474 66.2382 17.8874 67.3182 17.1674C68.4222 16.4474 69.2502 15.4034 69.8022 14.0354V10.5074H63.3942C61.5462 10.5074 60.2022 10.8434 59.3622 11.5154C58.5462 12.1874 58.1382 13.1114 58.1382 14.2874C58.1382 15.5114 58.5942 16.4834 59.5062 17.2034C60.4182 17.8994 61.7022 18.2474 63.3582 18.2474ZM105.523 0.787406L98.395 19.5794H96.703L90.367 3.27141L83.995 19.5794H82.339L75.211 0.787406H76.939L83.203 17.5634L89.611 0.787406H91.159L97.531 17.5274L103.867 0.787406H105.523ZM115.483 0.643406C117.811 0.643406 119.599 1.24341 120.847 2.44341C122.095 3.61941 122.719 5.35941 122.719 7.66341V19.5794H120.991V16.2314C120.391 17.3354 119.515 18.1994 118.363 18.8234C117.211 19.4234 115.831 19.7234 114.223 19.7234C112.135 19.7234 110.479 19.2314 109.255 18.2474C108.055 17.2634 107.455 15.9674 107.455 14.3594C107.455 12.7994 108.007 11.5394 109.111 10.5794C110.239 9.59541 112.027 9.10341 114.475 9.10341H120.919V7.59141C120.919 5.83941 120.439 4.50741 119.479 3.59541C118.543 2.68341 117.163 2.22741 115.339 2.22741C114.091 2.22741 112.891 2.44341 111.739 2.87541C110.611 3.30741 109.651 3.88341 108.859 4.60341L107.959 3.30741C108.895 2.46741 110.023 1.81941 111.343 1.36341C112.663 0.883406 114.043 0.643406 115.483 0.643406ZM114.475 18.2474C116.035 18.2474 117.355 17.8874 118.435 17.1674C119.539 16.4474 120.367 15.4034 120.919 14.0354V10.5074H114.511C112.663 10.5074 111.319 10.8434 110.479 11.5154C109.663 12.1874 109.255 13.1114 109.255 14.2874C109.255 15.5114 109.711 16.4834 110.623 17.2034C111.535 17.8994 112.819 18.2474 114.475 18.2474ZM144.868 0.787406L135.22 22.1354C134.5 23.7914 133.66 24.9674 132.7 25.6634C131.764 26.3594 130.648 26.7074 129.352 26.7074C128.488 26.7074 127.672 26.5634 126.904 26.2754C126.16 25.9874 125.524 25.5674 124.996 25.0154L125.896 23.6474C126.856 24.6314 128.02 25.1234 129.388 25.1234C130.3 25.1234 131.08 24.8714 131.728 24.3674C132.376 23.8634 132.976 22.9994 133.528 21.7754L134.536 19.5074L126.076 0.787406H127.984L135.508 17.5994L143.032 0.787406H144.868Z" fill="white"/>
</svg>
